<svg width="16" height="16" viewBox="0 0 16 16" fill="none" xmlns="http://www.w3.org/2000/svg">
<circle cx="8" cy="8" r="8" fill="black"/>
<path d="M8 2.85718L8.00572 8.88575C7.66858 8.69146 7.28001 8.57146 6.86286 8.57146C5.59429 8.57146 4.57143 9.59432 4.57143 10.8572C4.57143 12.12 5.59429 13.1429 6.86286 13.1429C8.13143 13.1429 9.14286 12.12 9.14286 10.8572V5.14289H11.4286V2.85718H8ZM6.86286 12C6.23429 12 5.72001 11.4857 5.72001 10.8572C5.72001 10.2286 6.23429 9.71432 6.86286 9.71432C7.49143 9.71432 8.00572 10.2286 8.00572 10.8572C8.00572 11.4857 7.49143 12 6.86286 12Z" fill="white"/>
</svg>
