<svg width="16" height="16" viewBox="0 0 16 16" fill="none" xmlns="http://www.w3.org/2000/svg">
<circle cx="8" cy="8" r="8" fill="black"/>
<path d="M10.5712 10.566C9.88121 10.566 9.44676 10.7807 9.06343 10.9749C8.73121 11.1436 8.46032 11.2816 8.01565 11.2816C7.55565 11.2816 7.3001 11.1538 6.96788 10.9749C6.58454 10.7807 6.16543 10.566 5.4601 10.566C4.75476 10.566 4.33565 10.7807 3.95232 10.9749C3.6201 11.1436 3.35432 11.2816 2.90454 11.2816V12.2783C3.59454 12.2783 4.02899 12.0636 4.41232 11.8694C4.74454 11.7007 5.01032 11.5627 5.4601 11.5627C5.90987 11.5627 6.17565 11.6905 6.50787 11.8694C6.89121 12.0636 7.31032 12.2783 8.01565 12.2783C8.72099 12.2783 9.1401 12.0636 9.52343 11.8694C9.85565 11.7007 10.1265 11.5627 10.5712 11.5627C11.0312 11.5627 11.2868 11.6905 11.619 11.8694C12.0023 12.0636 12.4265 12.2783 13.1268 12.2783V11.2816C12.6668 11.2816 12.4112 11.1538 12.079 10.9749C11.6957 10.7807 11.2612 10.566 10.5712 10.566ZM10.5712 8.2916C9.88121 8.2916 9.44676 8.51137 9.06343 8.70049C8.73121 8.86404 8.46032 9.00715 8.01565 9.00715C7.55565 9.00715 7.3001 8.87937 6.96788 8.70049C6.58454 8.50626 6.16543 8.2916 5.4601 8.2916C4.75476 8.2916 4.33565 8.51137 3.95232 8.70049C3.6201 8.86404 3.35432 9.00715 2.90454 9.00715V10.0038C3.59454 10.0038 4.02899 9.78404 4.41232 9.59493C4.74454 9.41604 5.0001 9.28826 5.4601 9.28826C5.9201 9.28826 6.17565 9.41604 6.50787 9.59493C6.89121 9.78915 7.31032 10.0038 8.01565 10.0038C8.72099 10.0038 9.1401 9.78404 9.52343 9.59493C9.85565 9.41604 10.1112 9.28826 10.5712 9.28826C11.0312 9.28826 11.2868 9.41604 11.619 9.59493C12.0023 9.78915 12.4265 10.0038 13.1268 10.0038V9.00715C12.6668 9.00715 12.4112 8.87937 12.079 8.70049C11.6957 8.50626 11.2612 8.2916 10.5712 8.2916ZM12.079 4.16182C11.6957 3.9676 11.2714 3.75293 10.5712 3.75293C9.87099 3.75293 9.44676 3.9676 9.06343 4.16182C8.73121 4.32537 8.46032 4.46849 8.01565 4.46849C7.55565 4.46849 7.3001 4.34071 6.96788 4.16182C6.58454 3.97271 6.16543 3.75293 5.4601 3.75293C4.75476 3.75293 4.33565 3.9676 3.95232 4.16182C3.6201 4.33049 3.35432 4.46849 2.90454 4.46849V5.45493C3.59454 5.45493 4.02899 5.23515 4.41232 5.04604C4.74454 4.87737 5.01032 4.73937 5.4601 4.73937C5.90987 4.73937 6.17565 4.86715 6.50787 5.04604C6.89121 5.24026 7.31032 5.45493 8.01565 5.45493C8.72099 5.45493 9.1401 5.23515 9.52343 5.04604C9.85565 4.88249 10.1265 4.73937 10.5712 4.73937C11.0312 4.73937 11.2868 4.86715 11.619 5.04604C12.0023 5.24026 12.4265 5.45493 13.1268 5.45493V4.45826C12.6668 4.45826 12.4112 4.33049 12.079 4.16182ZM10.5712 6.01715C9.88121 6.01715 9.44676 6.23693 9.06343 6.42604C8.73121 6.60493 8.47565 6.73271 8.01565 6.73271C7.55565 6.73271 7.3001 6.60493 6.96788 6.42604C6.58454 6.23182 6.16543 6.01715 5.4601 6.01715C4.75476 6.01715 4.33565 6.23693 3.95232 6.42604C3.6201 6.60493 3.36454 6.73271 2.90454 6.73271V7.72937C3.59454 7.72937 4.02899 7.5096 4.41232 7.32049C4.74454 7.15693 5.01543 7.01382 5.4601 7.01382C5.90476 7.01382 6.17565 7.1416 6.50787 7.32049C6.89121 7.51471 7.31032 7.72937 8.01565 7.72937C8.72099 7.72937 9.1401 7.5096 9.52343 7.32049C9.85565 7.15693 10.1265 7.01382 10.5712 7.01382C11.0312 7.01382 11.2868 7.1416 11.619 7.32049C12.0023 7.51471 12.4265 7.72937 13.1268 7.72937V6.73271C12.6668 6.73271 12.4112 6.60493 12.079 6.42604C11.6957 6.23182 11.2612 6.01715 10.5712 6.01715Z" fill="white"/>
</svg>
